<svg width="32" height="32" viewBox="0 0 32 32" fill="none" xmlns="http://www.w3.org/2000/svg">
<rect width="32" height="32" rx="16" fill="#F1F8F4"/>
<path fill-rule="evenodd" clip-rule="evenodd" d="M19.3562 20.095V16.9789L16.2625 17.243C15.4576 17.3185 14.8037 17.5071 14.3006 17.809C13.8957 18.0434 13.6623 18.3862 13.6005 18.8374C11.8627 18.2495 10.1831 17.4807 8.59048 16.5388C8.83397 16.0716 9.15276 15.6649 9.54686 15.3189C10.5781 14.4134 12.1627 13.8475 14.3006 13.6211L19.3185 13.0929V12.6779C19.3185 11.873 18.9915 11.282 18.3376 10.9047C17.6836 10.5274 16.7404 10.3388 15.5079 10.3388C14.5521 10.3388 13.6089 10.4519 12.6783 10.6783C11.7728 10.9047 10.9554 11.1688 10.226 11.4706C9.92414 11.2694 9.66004 10.9676 9.43367 10.5651C9.23246 10.1375 9.13185 9.6848 9.13185 9.2069C9.13185 8.10021 9.71035 7.30791 10.8673 6.83002C11.5968 6.55335 12.4394 6.35213 13.3951 6.22637C14.3761 6.07546 15.3319 6 16.2625 6C17.5704 6 18.7526 6.13834 19.809 6.41501C20.8905 6.66653 21.8086 7.06897 22.5631 7.62232C23.3177 8.17566 23.8962 8.87993 24.2986 9.7351C24.7262 10.5903 24.94 11.5964 24.94 12.7534V20.1823L22.7043 20.232C21.5825 20.2569 20.4644 20.2107 19.3562 20.095ZM24.8014 22.1859L22.7488 22.2315C17.5938 22.346 12.5104 21.0632 8.03475 18.5279C8.01158 18.7694 8 19.0202 8 19.2804C8 21.3177 8.76714 22.8394 10.3014 23.8455C11.8357 24.8264 13.8982 25.3169 16.4889 25.3169C17.9225 25.3169 19.2053 25.1911 20.3371 24.9396C21.469 24.6881 22.4248 24.3234 23.2045 23.8455C23.6824 23.5688 24.0848 23.2418 24.4118 22.8645C24.5836 22.6683 24.7134 22.442 24.8014 22.1859Z" fill="#336852"/>
</svg>
