<svg width="100" height="44" viewBox="0 0 100 44" fill="none" xmlns="http://www.w3.org/2000/svg">
<path d="M97.9061 27.1401C97.9061 29.5001 97.5461 31.6401 96.8261 33.5601C96.1061 35.4401 95.0661 37.0401 93.7061 38.3601C92.3861 39.6801 90.7861 40.7001 88.9061 41.4201C87.0261 42.1401 84.9261 42.5001 82.6061 42.5001C80.2861 42.5001 78.1661 42.1601 76.2461 41.4801C74.3661 40.7601 72.7461 39.7401 71.3861 38.4201C70.0661 37.1001 69.0461 35.5001 68.3261 33.6201C67.6061 31.7001 67.2461 29.5401 67.2461 27.1401C67.2461 24.8201 67.6061 22.7201 68.3261 20.8401C69.0861 18.9201 70.1261 17.3001 71.4461 15.9801C72.8061 14.6601 74.4261 13.6401 76.3061 12.9201C78.2261 12.2001 80.3261 11.8401 82.6061 11.8401C84.8861 11.8401 86.9661 12.2001 88.8461 12.9201C90.7261 13.6401 92.3261 14.6801 93.6461 16.0401C95.0061 17.3601 96.0461 18.9601 96.7661 20.8401C97.5261 22.7201 97.9061 24.8201 97.9061 27.1401ZM82.6061 19.0401C80.7261 19.0401 79.2661 19.7401 78.2261 21.1401C77.1861 22.5401 76.6661 24.5401 76.6661 27.1401C76.6661 29.8201 77.1661 31.8601 78.1661 33.2601C79.2061 34.6201 80.6861 35.3001 82.6061 35.3001C84.5261 35.3001 85.9861 34.6001 86.9861 33.2001C88.0261 31.8001 88.5461 29.7801 88.5461 27.1401C88.5461 24.5801 88.0261 22.6001 86.9861 21.2001C85.9461 19.7601 84.4861 19.0401 82.6061 19.0401Z" fill="#336852"/>
<path d="M60.3252 42.02C58.5252 42.02 57.2252 41.74 56.4252 41.18C55.6652 40.58 55.2852 39.44 55.2852 37.76V2.54C55.6852 2.42 56.2452 2.3 56.9652 2.18C57.7252 2.06 58.5452 2 59.4252 2C61.1852 2 62.4652 2.3 63.2652 2.9C64.0652 3.5 64.4652 4.64 64.4652 6.32V41.54C64.0252 41.66 63.4452 41.76 62.7252 41.84C62.0052 41.96 61.2052 42.02 60.3252 42.02Z" fill="#336852"/>
<path d="M42.7894 41.5399C42.3894 41.6599 41.8294 41.7599 41.1094 41.8399C40.3894 41.9599 39.5894 42.0199 38.7094 42.0199C36.9094 42.0199 35.6094 41.7399 34.8094 41.1799C34.0094 40.5799 33.6094 39.4399 33.6094 37.7599V19.4599C33.6094 18.3399 33.8894 17.3799 34.4494 16.5799C35.0094 15.7799 35.7894 15.0799 36.7894 14.4799C38.1094 13.6799 39.6894 13.0599 41.5294 12.6199C43.4094 12.1399 45.3694 11.8999 47.4094 11.8999C51.5694 11.8999 53.6494 13.2999 53.6494 16.0999C53.6494 16.7799 53.5494 17.3999 53.3494 17.9599C53.1494 18.5199 52.9294 18.9999 52.6894 19.3999C51.7694 19.1999 50.6494 19.0999 49.3294 19.0999C48.1694 19.0999 47.0094 19.2399 45.8494 19.5199C44.6894 19.7999 43.6694 20.1799 42.7894 20.6599V41.5399Z" fill="#336852"/>
<path fill-rule="evenodd" clip-rule="evenodd" d="M21.06 34.8128V29.3001L16.14 29.7201C14.86 29.8401 13.82 30.1401 13.02 30.6201C12.26 31.0601 11.88 31.7401 11.88 32.6601C11.88 32.7204 11.8814 32.7798 11.8843 32.8385C9.03926 31.9042 6.28541 30.6824 3.66692 29.1857C4.07622 28.1922 4.67391 27.3503 5.46 26.6601C7.1 25.2201 9.62 24.3201 13.02 23.9601L21 23.1201V22.4601C21 21.1801 20.48 20.2401 19.44 19.6401C18.4 19.0401 16.9 18.7401 14.94 18.7401C13.42 18.7401 11.92 18.9201 10.44 19.2801C9 19.6401 7.7 20.0601 6.54 20.5401C6.06 20.2201 5.64 19.7401 5.28 19.1001C4.96 18.4201 4.8 17.7001 4.8 16.9401C4.8 15.1801 5.72 13.9201 7.56 13.1601C8.72 12.7201 10.06 12.4001 11.58 12.2001C13.14 11.9601 14.66 11.8401 16.14 11.8401C18.22 11.8401 20.1 12.0601 21.78 12.5001C23.5 12.9001 24.96 13.5401 26.16 14.4201C27.36 15.3001 28.28 16.4201 28.92 17.7801C29.6 19.1401 29.94 20.7401 29.94 22.5801V35.0656L25.8034 35.0657C24.2141 35.0657 22.6308 34.9808 21.06 34.8128ZM29.8122 37.2656L25.8034 37.2657C17.8477 37.2657 10.0349 35.2382 3.09754 31.3898C3.03251 31.8871 3 32.4105 3 32.9601C3 36.2001 4.22 38.6201 6.66 40.2201C9.1 41.7801 12.38 42.5601 16.5 42.5601C18.78 42.5601 20.82 42.3601 22.62 41.9601C24.42 41.5601 25.94 40.9801 27.18 40.2201C27.94 39.7801 28.58 39.2601 29.1 38.6601C29.4416 38.2697 29.679 37.8049 29.8122 37.2656Z" fill="#336852"/>
</svg>
